<?xml version="1.0" encoding="utf-8"?>
<!-- Generator: Adobe Illustrator 26.2.1, SVG Export Plug-In . SVG Version: 6.00 Build 0)  -->
<svg version="1.1" id="Capa_1" xmlns="http://www.w3.org/2000/svg" xmlns:xlink="http://www.w3.org/1999/xlink" x="0px" y="0px"
	 viewBox="0 0 575.59 180.14" style="enable-background:new 0 0 575.59 180.14;" xml:space="preserve">
<g>
	<g>
		<g>
			<path d="M56.61,101.04c0-8.33,6.2-14.46,14.22-14.46c8.06,0,14.3,6.12,14.3,14.46s-6.24,14.53-14.3,14.53
				C62.81,115.57,56.61,109.37,56.61,101.04z M79.05,101.04c0-5.12-3.1-9.19-8.22-9.19c-5.08,0-8.18,4.07-8.18,9.19
				s3.1,9.26,8.18,9.26C75.95,110.3,79.05,106.15,79.05,101.04z"/>
			<path d="M94.23,95.57v19.42h-5.39V87.16h6.36l12.13,18.45V87.16h5.43v27.83h-5.77L94.23,95.57z"/>
			<path d="M124.17,114.99V92.47h-8.76v-5.31h23.45v5.31h-8.8v22.52H124.17z"/>
			<path d="M160.23,114.99h-18.72V87.16h18.45v5.12H147.4v5.85h11.39v5.08H147.4v6.67h12.83V114.99z"/>
			<path d="M169.77,96.5v18.49h-5.35V87.16h7.05l8.06,20.62l8.1-20.62h7.05v27.83h-5.35V96.35l-7.36,18.64h-4.92L169.77,96.5z"/>
			<path d="M205.9,105.92v9.07h-5.89V87.16h10.27c6.78,0,11.01,3.22,11.01,9.26c0,6.05-4.22,9.5-11.01,9.5H205.9z M205.9,92.12v8.84
				h4.34c3.33,0,5.19-1.74,5.19-4.5c0-2.75-1.86-4.34-5.19-4.34H205.9z"/>
			<path d="M223.23,101.04c0-8.33,6.2-14.46,14.22-14.46c8.06,0,14.3,6.12,14.3,14.46s-6.24,14.53-14.3,14.53
				C229.43,115.57,223.23,109.37,223.23,101.04z M245.67,101.04c0-5.12-3.1-9.19-8.22-9.19c-5.08,0-8.18,4.07-8.18,9.19
				s3.1,9.26,8.18,9.26C242.57,110.3,245.67,106.15,245.67,101.04z"/>
			<path d="M255.47,114.99V87.16h10.89c7.02,0,11.08,3.26,11.08,9.03c0,3.76-2.33,6.74-6.28,8.06l7.17,10.74h-7.02l-6.28-9.84h-3.68
				v9.84H255.47z M261.36,100.3h4.73c3.57,0,5.46-1.4,5.46-4.11c0-2.75-1.9-4.15-5.46-4.15h-4.73V100.3z"/>
			<path d="M298.8,109.02h-10.81l-2.13,5.97h-5.93l10.46-27.83h6.43l10.39,27.83h-6.32L298.8,109.02z M289.65,104.33h7.52
				l-3.72-10.74L289.65,104.33z"/>
			<path d="M309.81,114.99V87.16h10.89c7.02,0,11.08,3.26,11.08,9.03c0,3.76-2.33,6.74-6.28,8.06l7.17,10.74h-7.02l-6.28-9.84h-3.68
				v9.84H309.81z M315.7,100.3h4.73c3.57,0,5.46-1.4,5.46-4.11c0-2.75-1.9-4.15-5.46-4.15h-4.73V100.3z"/>
			<path d="M347.75,114.99h-5.89v-10.46l-9.84-17.36h6.36L345,99.14l6.74-11.98h5.93l-9.92,17.36V114.99z"/>
		</g>
	</g>
	<g>
		<g>
			<path d="M390.9,114.99V87.16h10.89c7.02,0,11.08,3.26,11.08,9.03c0,3.76-2.33,6.74-6.28,8.06l7.17,10.74h-7.02l-6.28-9.84h-3.68
				v9.84H390.9z M396.79,100.3h4.73c3.57,0,5.46-1.4,5.46-4.11c0-2.75-1.9-4.15-5.46-4.15h-4.73V100.3z"/>
			<path d="M423.48,114.99V92.47h-8.76v-5.31h23.45v5.31h-8.8v22.52H423.48z"/>
		</g>
	</g>
	<g>
		<g>
			<path d="M463.3,101.04c0-8.33,6.2-14.46,14.22-14.46c8.06,0,14.3,6.12,14.3,14.46s-6.24,14.53-14.3,14.53
				C469.5,115.57,463.3,109.37,463.3,101.04z M485.74,101.04c0-5.12-3.1-9.19-8.22-9.19c-5.08,0-8.18,4.07-8.18,9.19
				s3.1,9.26,8.18,9.26C482.64,110.3,485.74,106.15,485.74,101.04z"/>
			<path d="M510.73,95.53l-5.19,19.46h-5.97l-7.13-27.83h5.74l4.5,18.87l5.12-18.87h6.01l4.96,18.95l4.53-18.95h5.77l-7.17,27.83
				h-5.97L510.73,95.53z"/>
		</g>
	</g>
	<g>
		<g>
			<path d="M38.84,73.52c0-8.14,6.12-14.46,13.95-14.46c7.33,0,13.06,4.88,14.03,12.01h-6.24c-0.66-3.99-3.76-6.74-7.71-6.74
				c-4.77,0-7.98,3.76-7.98,9.19c0,5.46,3.22,9.26,7.98,9.26c3.95,0,7.02-2.79,7.71-6.78h6.24c-0.97,7.21-6.71,12.05-14.03,12.05
				C44.96,88.05,38.84,81.7,38.84,73.52z"/>
		</g>
	</g>
	<g>
		<g>
			<path d="M379.34,79.98h-10.81l-2.13,5.97h-5.93l10.46-27.83h6.43l10.39,27.83h-6.32L379.34,79.98z M370.19,75.29h7.52
				l-3.72-10.74L370.19,75.29z"/>
		</g>
	</g>
	<g>
		<g>
			<path d="M446.42,66.53v19.42h-5.39V58.12h6.36l12.13,18.45V58.12h5.43v27.83h-5.77L446.42,66.53z"/>
		</g>
	</g>
</g>
</svg>
